<?xml version="1.0" encoding="utf-8"?>
<!-- Generator: Adobe Illustrator 27.0.1, SVG Export Plug-In . SVG Version: 6.00 Build 0)  -->
<svg version="1.1" id="Layer_1" xmlns="http://www.w3.org/2000/svg" xmlns:xlink="http://www.w3.org/1999/xlink" x="0px" y="0px"
	 viewBox="0 0 225 47" style="enable-background:new 0 0 225 47;" xml:space="preserve">
<style type="text/css">
	.st0{fill:#DBE9CC;}
	.st1{fill:#45AC50;}
	.st2{fill:#F06574;}
</style>
<path class="st0" d="M8.9,21.4l2.3,1.3c-0.4,0-1.7,0.6-2.3,0.9l-1.8,0.9l-1.4,1.8l-0.9,2.7L4,30l-1.4,0.4v1.3l0.9,4.5L4,38.1
	l0.9,0.4l1.4-0.4l0.5,0.4l1.8,1.3l4.1,2.2l1.8,0.9v2.2l1.8,0.4H18l0.9-0.4l0.9-2.7l4.1-0.4l0.5,1.3l0.9,1.8l3.2,0.4l0.9-0.9l0.5-2.2
	l1.4-1.3l2.7-1.8l1.8-2.7c0.3-0.7,0.9-2.3,0.9-2.7v-2.7c0-0.4-0.9-3.6-1.4-4.9c-0.4-1.1-1.1-1.9-1.4-2.2l-2.7-2.7l-1.8-0.9l-1.8,1.3
	c-1.2,0.3-3.7,0.9-4.1,0.9c-0.4,0-2.9-0.3-4.1-0.4l-2.3-0.9l-0.5-2.2l-1.4-0.9l-4.5,0.9l-2.3,0.9L8.9,21.4z"/>
<path class="st0" d="M7.3,47H0.8C0.3,47,0,46.7,0,46.2c0-0.4,0.3-0.8,0.8-0.8h6.5c0.4,0,0.8,0.3,0.8,0.8C8,46.7,7.7,47,7.3,47z"/>
<path class="st0" d="M34.2,47H10.8c-0.4,0-0.8-0.3-0.8-0.8c0-0.4,0.3-0.8,0.8-0.8h23.4c0.4,0,0.8,0.3,0.8,0.8
	C34.9,46.7,34.6,47,34.2,47z"/>
<path class="st0" d="M41,47h-4.1c-0.4,0-0.8-0.3-0.8-0.8c0-0.4,0.3-0.8,0.8-0.8H41c0.4,0,0.8,0.3,0.8,0.8C41.8,46.7,41.4,47,41,47z"
	/>
<path class="st1" d="M28.9,47h-3.2c-0.7,0-1.6-0.4-1.8-1.3c-0.1-0.4-0.3-1.4-0.5-2h-3.1l-0.5,2.3c-0.2,0.5-0.6,1.1-1.3,1.1h-3.5
	c-0.6,0-1.3-0.4-1.5-1.3l-0.5-2.1c-1.4-0.4-5.1-1.8-7.2-4.1c-0.4,0.2-1,0.3-1.5,0.2c0,0-0.1,0-0.1,0c-1-0.2-1.8-0.8-2.1-2.7
	c-0.3-1.8-0.8-5-0.8-5c0-0.1-0.2-1.3,0.6-2.1c0.3-0.3,0.7-0.7,1.4-0.8c0.4-1.2,1.3-3.7,3.3-5.3c0.2-0.2,0.9-0.8,1.9-1.5
	c-1-0.5-1.2-0.8-1.3-1l0,0c-0.1-0.2-0.5-0.7-0.3-1.3c0.2-0.6,0.8-1,1.2-1.2c1.4-0.6,5.1-1.8,5.3-1.9l0.1,0l0.1,0
	c0.4-0.1,2.3-0.4,3.1,0.9c0.2,0.4,0.4,0.8,0.5,1.3c0.2,0.6,0.4,1.4,0.7,1.6c0.7,0.4,2.9,1.2,5.2,1.1c2.2-0.1,3.4-0.4,4.9-1.6
	c0.2-0.2,0.7-0.7,1.4-0.8c0.4,0,0.9,0,1.5,0.5c0.1,0,0.1,0.1,0.2,0.2c4.6,3.7,7,7.9,7.1,12.7c0.1,3.2-1.3,6.1-3.8,8.2
	c-1.4,1.2-2.7,1.8-3.4,2.1l-0.5,2.5C30.5,46.2,30,47,28.9,47z M25.8,45.2h3l0,0l0.7-3.5l0.5-0.2c0.3-0.1,6.7-2.5,6.5-8.8
	c-0.1-4.2-2.2-7.9-6.4-11.3c-0.1-0.1-0.2-0.1-0.2-0.2c-0.1-0.1-0.1-0.1-0.1-0.1c-0.1,0-0.2,0.1-0.2,0.2l-0.1,0.1l-0.1,0.1
	c-1.9,1.5-3.4,1.9-6,2c-2.4,0.2-5.1-0.6-6.3-1.4c-0.9-0.6-1.2-1.7-1.5-2.6c-0.1-0.3-0.2-0.7-0.3-0.9c-0.2-0.1-0.7-0.1-1.1-0.1
	c-0.5,0.2-3.7,1.2-4.9,1.7c0.3,0.2,0.8,0.5,1.5,0.8c0.4,0.2,0.6,0.5,0.7,1c0,0.4-0.2,0.8-0.6,1C9.1,23.9,8,25,8,25l-0.1,0.1
	c-2.1,1.7-2.9,4.9-2.9,5l-0.2,0.7l-0.7,0c-0.3,0-0.6,0-0.8,0.2c-0.2,0.2-0.2,0.6-0.2,0.7c0,0,0.5,3.2,0.8,5c0.1,0.8,0.3,1,0.4,1.1
	c0,0,0.1,0.1,0.3,0.1c0,0,0.1,0,0.1,0c0.1,0,0.5-0.2,0.8-0.3l0.7-0.5l0.5,0.7c1.9,2.7,7.2,4.2,7.2,4.2l0.5,0.1l0.7,3h2.9l0.7-3.3h6
	l0.2,0.7C25.1,42.6,25.5,44.5,25.8,45.2C25.7,45.2,25.7,45.2,25.8,45.2z"/>
<path class="st1" d="M37.4,33.8c-0.5,0-0.9-0.4-0.9-0.9c0-0.5,0.4-0.9,0.9-0.9l4,0c0.2,0,0.5-0.2,0.5-0.6c0,0,0-0.2,0-0.2
	c-0.1-0.1-0.3-0.1-0.5-0.1c-0.1,0-0.2,0.1-0.3,0.1c0,0.5-0.4,0.8-0.9,0.8c-0.5,0-0.9-0.4-0.9-0.9c0-1.1,1-1.7,1.8-1.8l0,0
	c0.1,0,1.1-0.1,1.9,0.6c0.3,0.3,0.6,0.8,0.6,1.6c0,1.6-1.3,2.3-2.2,2.4l-0.1,0L37.4,33.8z"/>
<path class="st1" d="M11.6,25c-0.5,0-0.9-0.4-0.9-0.9c0-0.6,0-0.8-0.1-0.9c-0.1-0.1-0.2-0.2-0.4-0.2c-0.4-0.2-0.6-0.8-0.4-1.2
	c0.2-0.4,0.8-0.6,1.2-0.4c0.3,0.1,0.9,0.5,1.2,1c0.2,0.4,0.2,1,0.2,1.8C12.5,24.6,12.1,25,11.6,25z M10.7,23.2L10.7,23.2L10.7,23.2z
	"/>
<path class="st1" d="M24.8,46.2h-2.1c-0.4,0-0.8-0.2-1.1-0.5c-0.8-0.8-0.8-2.5-0.7-3.1c0-0.5,0.5-0.9,1-0.9c0.5,0,0.9,0.5,0.9,1
	c0,0.6,0.1,1.3,0.2,1.6h1.9c0.5,0,0.9,0.4,0.9,0.9C25.7,45.8,25.3,46.2,24.8,46.2z"/>
<path class="st1" d="M14.5,46.2h-2.4c-0.4,0-0.8-0.2-1.1-0.5c-0.9-1-0.9-3.3-0.9-3.9c0-0.5,0.4-0.9,0.9-0.9c0.5,0,0.9,0.4,0.9,0.9
	c0,1,0.1,2.2,0.3,2.5h2.2c0.5,0,0.9,0.4,0.9,0.9C15.4,45.8,15,46.2,14.5,46.2z"/>
<path class="st1" d="M9.6,30.5c0.9,0,1.6-0.7,1.6-1.6c0-0.9-0.7-1.6-1.6-1.6c-0.9,0-1.6,0.7-1.6,1.6C8.1,29.8,8.8,30.5,9.6,30.5z"/>
<path class="st1" d="M26.3,12.1v0.3c0,0.1,0,0.2,0,0.3C26.3,12.5,26.3,12.3,26.3,12.1z"/>
<path class="st0" d="M27.8,9.2v5.3c0,0.3,0,0.5-0.1,0.8c-0.4,2.2-2.3,3.9-4.6,3.9c-2.6,0-4.6-2.1-4.6-4.7v-4.3c0-0.6,0.5-1,1-1
	c0.3,0,0.5,0.1,0.7,0.3c0.2,0.2,0.3,0.4,0.3,0.7v0.6c0,0.4,0.4,0.8,0.8,0.8c0.4,0,0.8-0.4,0.8-0.8v-4c0-0.6,0.5-1,1-1
	c0.3,0,0.5,0.1,0.7,0.3c0.2,0.2,0.3,0.4,0.3,0.7v4c0,0.4,0.4,0.8,0.8,0.8c0.4,0,0.8-0.4,0.8-0.8V9.2c0-0.6,0.5-1,1-1
	c0.3,0,0.5,0.1,0.7,0.3C27.7,8.7,27.8,8.9,27.8,9.2z"/>
<path class="st0" d="M23.2,3.2c-0.5,0-1-0.4-1-1V1c0-0.6,0.4-1,1-1c0.5,0,1,0.4,1,1v1.2C24.1,2.7,23.7,3.2,23.2,3.2z"/>
<path class="st0" d="M26.8,6.1c-0.5,0-1-0.4-1-1V4.5c0-0.5,0.4-1,1-1c0.5,0,1,0.4,1,1v0.6C27.8,5.6,27.3,6.1,26.8,6.1z"/>
<path class="st0" d="M19.5,7.6c-0.5,0-1-0.5-1-1V5.7c0-0.6,0.4-1,1-1c0.5,0,1,0.5,1,1v0.8C20.5,7.1,20.1,7.6,19.5,7.6z"/>
<path class="st1" d="M23.8,28.1c0.3,0,0.6,0.1,0.9,0.3c0.3,0.1,0.4,0.3,0.4,0.5c0,0.2,0,0.3-0.1,0.5c-0.1,0.2-0.2,0.3-0.3,0.5
	l-5,7.3c-0.3,0-0.6-0.1-0.8-0.3c-0.2-0.1-0.3-0.3-0.3-0.5c0-0.2,0-0.3,0-0.5c0-0.2,0.1-0.3,0.2-0.5L23.8,28.1z M21.1,30.4
	c0,0.7-0.2,1.3-0.7,1.7c-0.4,0.4-1,0.6-1.7,0.6c-0.7,0-1.3-0.2-1.7-0.6c-0.4-0.4-0.6-1-0.6-1.7c0-0.7,0.2-1.3,0.6-1.7
	c0.4-0.4,1-0.6,1.7-0.6c0.7,0,1.3,0.2,1.7,0.6C20.9,29.1,21.1,29.7,21.1,30.4z M18.2,30.4c0,0.3,0.1,0.5,0.2,0.7
	c0.1,0.1,0.3,0.2,0.4,0.2c0.2,0,0.3-0.1,0.4-0.2c0.1-0.1,0.2-0.4,0.2-0.7c0-0.3-0.1-0.5-0.2-0.6c-0.1-0.1-0.2-0.2-0.4-0.2
	c-0.2,0-0.3,0.1-0.4,0.2C18.2,29.9,18.2,30.1,18.2,30.4z M27.2,34.9c0,0.7-0.2,1.3-0.7,1.7c-0.4,0.4-1,0.6-1.7,0.6
	c-0.7,0-1.3-0.2-1.7-0.6c-0.4-0.4-0.6-1-0.6-1.7c0-0.7,0.2-1.3,0.6-1.7c0.4-0.4,1-0.6,1.7-0.6c0.7,0,1.3,0.2,1.7,0.6
	C27,33.6,27.2,34.2,27.2,34.9z M24.3,34.9c0,0.3,0.1,0.5,0.2,0.7c0.1,0.1,0.3,0.2,0.4,0.2c0.2,0,0.3-0.1,0.4-0.2
	c0.1-0.1,0.2-0.4,0.2-0.7c0-0.3-0.1-0.5-0.2-0.6c-0.1-0.1-0.2-0.2-0.4-0.2c-0.2,0-0.3,0.1-0.4,0.2C24.3,34.4,24.3,34.6,24.3,34.9z"
	/>
<path class="st1" d="M22.9,15.7L22.9,15.7c-0.1,0-0.1,0-0.2-0.1c0,0-0.1-0.1-0.1-0.2c0-0.1,0-0.1-0.1-0.2c0,0-0.1-0.1-0.2-0.1
	c-0.1,0-0.1,0-0.2,0.1c0,0-0.1,0.1-0.1,0.2c0,0.2,0.1,0.4,0.2,0.5c0.1,0.1,0.3,0.2,0.5,0.2h0v0.3c0,0.1,0,0.1,0.1,0.2
	c0,0,0.1,0.1,0.2,0.1c0.1,0,0.1,0,0.2-0.1c0,0,0.1-0.1,0.1-0.2v-0.3c0.2,0,0.4-0.1,0.5-0.2c0.1-0.1,0.2-0.3,0.2-0.5
	c0-0.2-0.1-0.4-0.2-0.5c-0.1-0.1-0.3-0.2-0.5-0.2v-0.5h0c0.1,0,0.2,0.1,0.2,0.2c0,0.1,0,0.1,0.1,0.2c0,0,0.1,0.1,0.2,0.1
	c0.1,0,0.1,0,0.2-0.1c0,0,0.1-0.1,0.1-0.2c0-0.2-0.1-0.4-0.2-0.5c-0.1-0.1-0.3-0.2-0.5-0.2h0v-0.3c0-0.1,0-0.1-0.1-0.2
	c0,0-0.1-0.1-0.2-0.1c-0.1,0-0.1,0-0.2,0.1c0,0-0.1,0.1-0.1,0.2v0.3c-0.2,0-0.4,0.1-0.5,0.2c-0.1,0.1-0.2,0.3-0.2,0.5
	c0,0.2,0.1,0.4,0.2,0.5c0.1,0.1,0.3,0.2,0.5,0.2V15.7z M23.4,15.7v-0.5c0.1,0,0.1,0,0.2,0.1c0,0,0.1,0.1,0.1,0.2
	c0,0.1,0,0.1-0.1,0.2C23.5,15.7,23.5,15.7,23.4,15.7z M22.9,14.2v0.5c-0.1,0-0.1,0-0.2-0.1c0,0-0.1-0.1-0.1-0.2c0-0.1,0-0.1,0.1-0.2
	C22.8,14.2,22.8,14.2,22.9,14.2z M23.2,17.5c-1.4,0-2.5-1.1-2.5-2.5c0-1.4,1.1-2.5,2.5-2.5c1.4,0,2.5,1.1,2.5,2.5
	C25.7,16.3,24.5,17.5,23.2,17.5z"/>
<path class="st1" d="M54.4,37.4c0.3,0.1,0.7,0.1,1.1,0.2c0.5,0,0.9,0,1.3,0c0.8,0,1.5-0.2,2.1-0.5c0.6-0.4,0.8-0.9,0.8-1.6
	c0-0.7-0.2-1.2-0.7-1.5s-1.2-0.4-2.1-0.4h-2.6V37.4z M54.4,29.7h2.3c0.9,0,1.5-0.2,1.9-0.5c0.4-0.3,0.6-0.8,0.6-1.5
	c0-0.6-0.2-1-0.7-1.3c-0.5-0.3-1.2-0.5-2.1-0.5c-0.3,0-0.7,0-1.1,0c-0.4,0-0.7,0.1-0.9,0.1V29.7z M56.4,41.8c-0.4,0-0.8,0-1.3,0
	c-0.5,0-1-0.1-1.5-0.1c-0.5-0.1-1-0.1-1.5-0.3c-0.5-0.1-1-0.2-1.4-0.4c-1.2-0.4-1.7-1.2-1.7-2.3V24.1c0-0.4,0.1-0.8,0.3-1
	c0.3-0.3,0.6-0.4,1-0.6c0.7-0.3,1.6-0.4,2.7-0.5c1.1-0.1,2.2-0.2,3.3-0.2c2.7,0,4.7,0.5,6.2,1.3c1.4,0.9,2.2,2.3,2.2,4.2
	c0,0.9-0.3,1.8-0.8,2.4c-0.5,0.7-1.3,1.2-2.2,1.5c1,0.3,1.9,0.8,2.6,1.6c0.7,0.8,1.1,1.7,1.1,2.9c0,2.1-0.8,3.6-2.3,4.6
	C61.5,41.3,59.3,41.8,56.4,41.8z"/>
<path class="st1" d="M73.5,41.3c-0.2,0-0.6,0.1-1,0.2c-0.4,0.1-0.9,0.1-1.3,0.1c-0.5,0-0.9,0-1.3-0.1c-0.4-0.1-0.7-0.2-0.9-0.4
	c-0.3-0.2-0.4-0.4-0.6-0.8c-0.1-0.3-0.2-0.8-0.2-1.3V20.9c0.2,0,0.6-0.1,1-0.2c0.5-0.1,0.9-0.1,1.4-0.1c0.5,0,0.9,0,1.2,0.1
	c0.4,0.1,0.7,0.2,0.9,0.4c0.3,0.2,0.4,0.4,0.6,0.8c0.1,0.3,0.2,0.7,0.2,1.3V41.3z"/>
<path class="st1" d="M92.6,33.7c0,1.3-0.2,2.5-0.6,3.5c-0.4,1-1,1.9-1.7,2.5c-0.7,0.7-1.6,1.2-2.6,1.6c-1,0.4-2.1,0.5-3.4,0.5
	c-1.2,0-2.4-0.2-3.4-0.6c-1-0.4-1.9-0.9-2.6-1.6c-0.7-0.7-1.3-1.6-1.7-2.6c-0.4-1-0.6-2.1-0.6-3.4c0-1.2,0.2-2.4,0.6-3.4
	c0.4-1,1-1.9,1.7-2.5c0.7-0.7,1.6-1.3,2.6-1.6c1-0.4,2.1-0.6,3.4-0.6c1.2,0,2.4,0.2,3.4,0.6c1,0.4,1.9,0.9,2.6,1.6
	c0.7,0.7,1.3,1.5,1.7,2.5C92.4,31.4,92.6,32.5,92.6,33.7z M81.7,33.7c0,1.3,0.2,2.3,0.7,3c0.5,0.7,1.2,1,2.1,1s1.5-0.3,2-1
	c0.5-0.7,0.7-1.7,0.7-2.9s-0.2-2.2-0.7-2.9c-0.5-0.7-1.2-1-2-1s-1.6,0.3-2,1C81.9,31.5,81.7,32.4,81.7,33.7z"/>
<path class="st1" d="M102.7,25.6c1.2,0,2.3,0.2,3.2,0.5c1,0.3,1.8,0.7,2.5,1.2c0.4,0.3,0.7,0.6,1,1c0.3,0.4,0.4,0.8,0.4,1.4v11
	c0,1.1-0.2,2.1-0.6,2.9c-0.4,0.8-1,1.5-1.7,2c-0.7,0.5-1.6,0.9-2.5,1.2c-1,0.3-2,0.4-3.1,0.4c-1.9,0-3.4-0.3-4.5-0.8
	c-1.1-0.5-1.6-1.3-1.6-2.5c0-0.5,0.1-0.9,0.3-1.3c0.2-0.4,0.4-0.6,0.7-0.8c0.6,0.3,1.3,0.6,2,0.8c0.8,0.2,1.6,0.3,2.4,0.3
	c1.1,0,2-0.2,2.7-0.6c0.7-0.4,1-1,1-1.8v-0.5c-0.9,0.4-1.9,0.6-3.1,0.6c-0.9,0-1.8-0.1-2.7-0.4c-0.8-0.3-1.6-0.7-2.2-1.3
	c-0.6-0.6-1.1-1.4-1.5-2.3c-0.4-0.9-0.6-2.1-0.6-3.4c0-1.3,0.2-2.4,0.6-3.3c0.4-0.9,1-1.7,1.7-2.3c0.7-0.6,1.6-1.1,2.6-1.4
	C100.4,25.7,101.5,25.6,102.7,25.6z M104.6,30.1c-0.1-0.1-0.4-0.2-0.7-0.3c-0.3-0.1-0.6-0.1-1-0.1c-1,0-1.8,0.3-2.3,0.9
	c-0.5,0.6-0.8,1.4-0.8,2.4c0,1.2,0.3,2.1,0.8,2.6c0.5,0.5,1.2,0.8,2,0.8c0.9,0,1.5-0.2,2-0.6V30.1z"/>
<path class="st2" d="M121.5,25.6c1.2,0,2.3,0.2,3.2,0.5c1,0.3,1.8,0.7,2.5,1.2c0.4,0.3,0.7,0.6,1,1c0.3,0.4,0.4,0.8,0.4,1.4v11
	c0,1.1-0.2,2.1-0.6,2.9c-0.4,0.8-1,1.5-1.7,2c-0.7,0.5-1.6,0.9-2.5,1.2c-1,0.3-2,0.4-3.1,0.4c-1.9,0-3.4-0.3-4.5-0.8
	c-1.1-0.5-1.6-1.3-1.6-2.5c0-0.5,0.1-0.9,0.3-1.3c0.2-0.4,0.4-0.6,0.7-0.8c0.6,0.3,1.3,0.6,2,0.8c0.8,0.2,1.6,0.3,2.4,0.3
	c1.1,0,2-0.2,2.7-0.6c0.7-0.4,1-1,1-1.8v-0.5c-0.9,0.4-1.9,0.6-3.1,0.6c-0.9,0-1.8-0.1-2.7-0.4c-0.8-0.3-1.6-0.7-2.2-1.3
	c-0.6-0.6-1.1-1.4-1.5-2.3c-0.4-0.9-0.6-2.1-0.6-3.4c0-1.3,0.2-2.4,0.6-3.3c0.4-0.9,1-1.7,1.7-2.3c0.7-0.6,1.6-1.1,2.6-1.4
	C119.2,25.7,120.3,25.6,121.5,25.6z M123.4,30.1c-0.1-0.1-0.4-0.2-0.7-0.3c-0.3-0.1-0.6-0.1-1-0.1c-1,0-1.8,0.3-2.3,0.9
	c-0.5,0.6-0.8,1.4-0.8,2.4c0,1.2,0.3,2.1,0.8,2.6c0.5,0.5,1.2,0.8,2,0.8c0.9,0,1.5-0.2,2-0.6V30.1z"/>
<path class="st2" d="M131.7,21.8c0-0.8,0.3-1.5,0.8-2c0.5-0.5,1.3-0.8,2.1-0.8c0.9,0,1.6,0.3,2.1,0.8c0.5,0.5,0.8,1.2,0.8,2
	s-0.3,1.5-0.8,2c-0.5,0.5-1.2,0.8-2.1,0.8c-0.9,0-1.6-0.3-2.1-0.8C132,23.3,131.7,22.6,131.7,21.8z M137.3,41.3
	c-0.2,0-0.6,0.1-1,0.2c-0.4,0.1-0.9,0.1-1.3,0.1c-0.5,0-0.9,0-1.3-0.1c-0.4-0.1-0.7-0.2-0.9-0.4c-0.3-0.2-0.5-0.4-0.6-0.8
	c-0.1-0.3-0.2-0.8-0.2-1.3V26.3c0.2,0,0.6-0.1,1-0.2c0.5-0.1,0.9-0.1,1.4-0.1c0.5,0,0.9,0,1.2,0.1c0.4,0.1,0.7,0.2,0.9,0.4
	c0.3,0.2,0.4,0.4,0.6,0.8c0.1,0.3,0.2,0.7,0.2,1.3V41.3z"/>
<path class="st2" d="M147.2,37.9c0.4,0,0.7,0,1.2-0.1c0.4-0.1,0.8-0.2,1-0.3V35l-2.3,0.2c-0.6,0-1.1,0.2-1.4,0.4
	c-0.4,0.2-0.6,0.5-0.6,0.9c0,0.4,0.2,0.8,0.5,1C145.9,37.8,146.4,37.9,147.2,37.9z M147,25.6c1.1,0,2.2,0.1,3.1,0.3
	c0.9,0.2,1.7,0.6,2.4,1.1c0.7,0.5,1.2,1.1,1.5,1.8c0.4,0.7,0.5,1.6,0.5,2.5v7c0,0.5-0.2,1-0.5,1.3c-0.3,0.3-0.6,0.6-1.1,0.9
	c-1.4,0.8-3.3,1.2-5.7,1.2c-1.1,0-2.1-0.1-3-0.3c-0.9-0.2-1.6-0.5-2.3-0.9c-0.6-0.4-1.1-1-1.5-1.6c-0.3-0.6-0.5-1.4-0.5-2.3
	c0-1.4,0.4-2.6,1.3-3.3c0.9-0.8,2.2-1.3,4-1.4l4.1-0.4v-0.2c0-0.6-0.3-1-0.8-1.3c-0.5-0.3-1.3-0.4-2.3-0.4c-0.8,0-1.6,0.1-2.3,0.3
	c-0.8,0.2-1.4,0.4-2,0.6c-0.3-0.2-0.5-0.5-0.7-0.8c-0.2-0.4-0.3-0.8-0.3-1.2c0-0.5,0.1-1,0.4-1.3c0.3-0.3,0.7-0.6,1.2-0.8
	c0.6-0.2,1.3-0.4,2.1-0.5C145.4,25.6,146.2,25.6,147,25.6z"/>
<path class="st2" d="M165.1,25.6c0.9,0,1.7,0.1,2.5,0.4c0.8,0.2,1.6,0.6,2.2,1.1c0.6-0.4,1.3-0.8,2.1-1c0.8-0.3,1.7-0.4,2.9-0.4
	c0.8,0,1.6,0.1,2.3,0.3c0.8,0.2,1.5,0.5,2,1c0.6,0.4,1.1,1,1.4,1.8c0.4,0.7,0.5,1.6,0.5,2.7v9.9c-0.2,0.1-0.5,0.1-1,0.2
	c-0.4,0.1-0.9,0.1-1.4,0.1c-0.5,0-0.9,0-1.3-0.1c-0.4-0.1-0.7-0.2-0.9-0.4c-0.3-0.2-0.4-0.4-0.6-0.8c-0.1-0.3-0.2-0.8-0.2-1.3v-7.5
	c0-0.6-0.2-1.1-0.5-1.3c-0.4-0.3-0.8-0.4-1.4-0.4c-0.3,0-0.6,0.1-0.9,0.2c-0.3,0.1-0.6,0.3-0.8,0.4c0,0.1,0,0.2,0,0.3
	c0,0.1,0,0.1,0,0.2v10.5c-0.2,0.1-0.6,0.1-1,0.2c-0.4,0.1-0.9,0.1-1.4,0.1c-0.5,0-0.9,0-1.3-0.1c-0.4-0.1-0.7-0.2-0.9-0.4
	c-0.3-0.2-0.4-0.4-0.6-0.8c-0.1-0.3-0.2-0.8-0.2-1.3v-7.5c0-0.6-0.2-1.1-0.6-1.3c-0.4-0.3-0.8-0.4-1.4-0.4c-0.4,0-0.7,0.1-1,0.2
	c-0.3,0.1-0.5,0.2-0.7,0.3v11c-0.2,0.1-0.5,0.1-1,0.2c-0.4,0.1-0.9,0.1-1.4,0.1c-0.5,0-0.9,0-1.3-0.1c-0.4-0.1-0.7-0.2-0.9-0.4
	c-0.3-0.2-0.4-0.4-0.6-0.8c-0.1-0.3-0.2-0.8-0.2-1.3v-9.5c0-0.6,0.1-1,0.3-1.3c0.3-0.3,0.6-0.6,1-0.9c0.7-0.5,1.6-0.9,2.6-1.2
	C162.8,25.7,163.9,25.6,165.1,25.6z"/>
<path class="st2" d="M191.8,25.6c1.2,0,2.3,0.2,3.2,0.5c1,0.3,1.8,0.7,2.5,1.2c0.4,0.3,0.7,0.6,1,1c0.3,0.4,0.4,0.8,0.4,1.4v11
	c0,1.1-0.2,2.1-0.6,2.9c-0.4,0.8-1,1.5-1.7,2c-0.7,0.5-1.6,0.9-2.5,1.2c-1,0.3-2,0.4-3.1,0.4c-1.9,0-3.4-0.3-4.5-0.8
	c-1.1-0.5-1.6-1.3-1.6-2.5c0-0.5,0.1-0.9,0.3-1.3c0.2-0.4,0.4-0.6,0.7-0.8c0.6,0.3,1.3,0.6,2,0.8c0.8,0.2,1.6,0.3,2.4,0.3
	c1.1,0,2-0.2,2.7-0.6c0.7-0.4,1-1,1-1.8v-0.5c-0.9,0.4-1.9,0.6-3.1,0.6c-0.9,0-1.8-0.1-2.7-0.4c-0.8-0.3-1.6-0.7-2.2-1.3
	c-0.6-0.6-1.1-1.4-1.5-2.3c-0.4-0.9-0.6-2.1-0.6-3.4c0-1.3,0.2-2.4,0.6-3.3c0.4-0.9,1-1.7,1.7-2.3c0.7-0.6,1.6-1.1,2.6-1.4
	C189.5,25.7,190.6,25.6,191.8,25.6z M193.7,30.1c-0.1-0.1-0.4-0.2-0.7-0.3c-0.3-0.1-0.6-0.1-1-0.1c-1,0-1.8,0.3-2.3,0.9
	c-0.5,0.6-0.8,1.4-0.8,2.4c0,1.2,0.3,2.1,0.8,2.6c0.5,0.5,1.2,0.8,2,0.8c0.9,0,1.5-0.2,2-0.6V30.1z"/>
<path class="st2" d="M202,21.8c0-0.8,0.3-1.5,0.8-2c0.5-0.5,1.3-0.8,2.1-0.8s1.6,0.3,2.1,0.8c0.5,0.5,0.8,1.2,0.8,2s-0.3,1.5-0.8,2
	c-0.5,0.5-1.2,0.8-2.1,0.8s-1.6-0.3-2.1-0.8C202.3,23.3,202,22.6,202,21.8z M207.6,41.3c-0.2,0-0.6,0.1-1,0.2
	c-0.4,0.1-0.9,0.1-1.3,0.1c-0.5,0-0.9,0-1.3-0.1c-0.4-0.1-0.7-0.2-0.9-0.4c-0.3-0.2-0.5-0.4-0.6-0.8c-0.1-0.3-0.2-0.8-0.2-1.3V26.3
	c0.2,0,0.6-0.1,1-0.2c0.5-0.1,0.9-0.1,1.4-0.1c0.5,0,0.9,0,1.2,0.1c0.4,0.1,0.7,0.2,0.9,0.4c0.3,0.2,0.4,0.4,0.6,0.8
	c0.1,0.3,0.2,0.7,0.2,1.3V41.3z"/>
<path class="st2" d="M217.5,37.9c0.4,0,0.7,0,1.2-0.1c0.4-0.1,0.8-0.2,1-0.3V35l-2.3,0.2c-0.6,0-1.1,0.2-1.4,0.4
	c-0.4,0.2-0.6,0.5-0.6,0.9c0,0.4,0.2,0.8,0.5,1C216.2,37.8,216.7,37.9,217.5,37.9z M217.3,25.6c1.1,0,2.2,0.1,3.1,0.3
	c0.9,0.2,1.7,0.6,2.4,1.1c0.7,0.5,1.2,1.1,1.5,1.8c0.4,0.7,0.5,1.6,0.5,2.5v7c0,0.5-0.2,1-0.5,1.3c-0.3,0.3-0.6,0.6-1.1,0.9
	c-1.4,0.8-3.3,1.2-5.7,1.2c-1.1,0-2.1-0.1-3-0.3c-0.9-0.2-1.6-0.5-2.3-0.9c-0.6-0.4-1.1-1-1.5-1.6c-0.3-0.6-0.5-1.4-0.5-2.3
	c0-1.4,0.4-2.6,1.3-3.3s2.2-1.3,4-1.4l4.1-0.4v-0.2c0-0.6-0.3-1-0.8-1.3c-0.5-0.3-1.3-0.4-2.3-0.4c-0.8,0-1.6,0.1-2.3,0.3
	c-0.8,0.2-1.4,0.4-2,0.6c-0.3-0.2-0.5-0.5-0.7-0.8c-0.2-0.4-0.3-0.8-0.3-1.2c0-0.5,0.1-1,0.4-1.3c0.3-0.3,0.7-0.6,1.2-0.8
	c0.6-0.2,1.3-0.4,2.1-0.5C215.7,25.6,216.5,25.6,217.3,25.6z"/>
</svg>
