<svg width="125" height="36" viewBox="0 0 125 36" fill="none" xmlns="http://www.w3.org/2000/svg">
<path d="M5.58318 36.0002H0.581582C0.260549 36.0002 0 35.7397 0 35.4186C0 35.0976 0.260549 34.837 0.581582 34.837H5.58318C5.90422 34.837 6.16477 35.0976 6.16477 35.4186C6.16477 35.7397 5.90422 36.0002 5.58318 36.0002Z" fill="#CCCECC"/>
<path d="M26.1713 36.0001H8.25858C7.93755 36.0001 7.677 35.7395 7.677 35.4185C7.677 35.0975 7.93755 34.8369 8.25858 34.8369H26.1713C26.4923 34.8369 26.7529 35.0975 26.7529 35.4185C26.7529 35.7395 26.4923 36.0001 26.1713 36.0001Z" fill="#CCCECC"/>
<path d="M31.4055 36.0001H28.2649C27.9439 36.0001 27.6833 35.7395 27.6833 35.4185C27.6833 35.0975 27.9439 34.8369 28.2649 34.8369H31.4055C31.7265 34.8369 31.9871 35.0975 31.9871 35.4185C31.9871 35.7395 31.7265 36.0001 31.4055 36.0001Z" fill="#CCCECC"/>
<path d="M22.1581 35.9999H19.7155C19.1735 35.9999 18.5116 35.6893 18.3406 35.0066C18.2662 34.7076 18.1022 33.9632 17.9893 33.4409H15.6293L15.2594 35.1741C15.1326 35.5556 14.7918 35.9999 14.2486 35.9999H11.5733C11.143 35.9999 10.6021 35.6893 10.4311 35.0066L10.0566 33.413C8.99228 33.078 6.1181 32.0463 4.52457 30.255C4.1919 30.3911 3.77317 30.4947 3.37885 30.3958C3.34861 30.3876 3.31721 30.3807 3.28696 30.3737C2.48554 30.1876 1.94002 29.7805 1.69576 28.3207C1.46429 26.933 1.11534 24.4904 1.11185 24.466C1.09789 24.3752 0.981573 23.4924 1.55734 22.8213C1.7574 22.5875 2.09821 22.3188 2.65071 22.2083C2.92406 21.3092 3.6522 19.3992 5.17478 18.1465C5.30273 18.0221 5.85058 17.5091 6.66828 16.9764C5.93549 16.5762 5.77381 16.3366 5.70053 16.2296L5.6761 16.1947C5.56909 16.0423 5.31668 15.6841 5.44579 15.2177C5.58305 14.7222 6.05762 14.4604 6.40308 14.3069C7.47202 13.8312 10.3078 12.9227 10.4288 12.8844L10.4718 12.8704L10.516 12.8623C10.8091 12.8088 12.2992 12.5912 12.8679 13.5392C13.0366 13.8207 13.1448 14.1755 13.2588 14.55C13.3937 14.9932 13.5786 15.5992 13.8194 15.7597C14.3289 16.0993 16.019 16.6856 17.8091 16.5739C19.5154 16.4669 20.425 16.2761 21.5405 15.3817C21.6964 15.1944 22.0732 14.8175 22.6257 14.7466C22.906 14.7105 23.3318 14.7431 23.7668 15.106C23.8087 15.1409 23.8645 15.1851 23.932 15.2398C27.4622 18.0569 29.2918 21.3185 29.3686 24.9336C29.4209 27.3855 28.4055 29.5699 26.4339 31.2519C25.3975 32.1359 24.3553 32.6593 23.8145 32.8977L23.4341 34.8018C23.3969 35.3974 22.9526 35.9999 22.1581 35.9999ZM19.726 34.6041H22.0406L22.0546 34.5832L22.5978 31.8683L22.9712 31.7357C23.1782 31.6613 28.0775 29.8479 27.9728 24.9638C27.9053 21.7826 26.2525 18.8793 23.0619 16.332C22.984 16.2703 22.9212 16.2191 22.8735 16.1796C22.8235 16.1377 22.7979 16.1319 22.7979 16.1319C22.7513 16.1389 22.6362 16.2447 22.6094 16.282L22.5559 16.3576L22.4838 16.4169C21.0601 17.5824 19.8702 17.8464 17.8975 17.9685C16.0213 18.086 13.9567 17.5289 13.0471 16.9217C12.391 16.4843 12.1328 15.6376 11.9258 14.9571C11.8444 14.6908 11.7606 14.4162 11.6838 14.2755C11.5629 14.1987 11.1488 14.1766 10.808 14.229C10.4346 14.3499 7.98033 15.1432 7.01723 15.562C7.2266 15.6992 7.61509 15.9109 8.20133 16.1645C8.49677 16.2924 8.69335 16.5832 8.70265 16.9043C8.71196 17.2264 8.53283 17.5289 8.24437 17.6743C7.00327 18.3024 6.14253 19.1515 6.13322 19.1596L6.08088 19.2073C4.43849 20.5415 3.88483 22.9783 3.88018 23.0027L3.75921 23.5506L3.19856 23.5517C3.00431 23.5517 2.74609 23.582 2.62047 23.725C2.48089 23.8832 2.48205 24.1775 2.49369 24.2682C2.49717 24.2915 2.8438 26.7179 3.07294 28.0892C3.17181 28.6813 3.29627 28.8674 3.34512 28.9197C3.37769 28.9546 3.4184 28.9697 3.60218 29.0116C3.63824 29.0198 3.67313 29.0279 3.70919 29.0372C3.81969 29.0419 4.12095 28.9197 4.32567 28.7848L4.89213 28.4126L5.28295 28.9663C6.74505 31.0553 10.7847 32.1719 10.8254 32.1824L11.2267 32.2917L11.7699 34.6006H13.9578L14.4964 32.0417H19.1165L19.2351 32.593C19.2386 32.6081 19.5515 34.0667 19.6771 34.5925C19.6934 34.6006 19.712 34.6029 19.726 34.6041Z" fill="white"/>
<path d="M28.6732 25.8827C28.2882 25.8827 27.9753 25.571 27.9753 25.1848C27.9753 24.7998 28.2871 24.4869 28.6732 24.4869L31.7614 24.4846C31.9452 24.4509 32.1616 24.3404 32.1616 24.0193C32.1616 23.9902 32.1592 23.8914 32.1267 23.8623C32.065 23.8053 31.8871 23.7797 31.7777 23.7832C31.7114 23.7972 31.6253 23.8286 31.5765 23.8576C31.5416 24.2101 31.2438 24.4858 30.8821 24.4858C30.4971 24.4858 30.1842 24.1729 30.1842 23.7879C30.1842 22.9725 30.917 22.4967 31.5974 22.399L31.6265 22.3955C31.7149 22.3862 32.5059 22.3234 33.0619 22.8282C33.2875 23.033 33.5562 23.4052 33.5562 24.0205C33.5562 25.2465 32.5594 25.8025 31.8882 25.8769L31.8115 25.8815L28.6732 25.8827Z" fill="white"/>
<path d="M8.89811 19.134C8.51311 19.134 8.20021 18.8211 8.20021 18.4361C8.20021 17.9976 8.17695 17.8057 8.1595 17.7231C8.10018 17.6719 7.9827 17.5963 7.88616 17.5475C7.54303 17.373 7.40461 16.9543 7.57792 16.6111C7.75123 16.268 8.16881 16.1284 8.51194 16.3006C8.71433 16.4018 9.20635 16.6798 9.40525 17.0776C9.56344 17.3928 9.59485 17.8487 9.59485 18.4361C9.59601 18.8211 9.28312 19.134 8.89811 19.134ZM8.18742 17.7499H8.18858H8.18742Z" fill="white"/>
<path d="M18.9898 35.4183H17.3893C17.0648 35.4183 16.7717 35.2904 16.5414 35.0485C15.9412 34.4169 15.9586 33.0967 15.9796 32.707C15.9993 32.322 16.3273 32.0277 16.7123 32.0452C17.0974 32.0649 17.3928 32.3918 17.3742 32.7768C17.3509 33.2467 17.4184 33.8027 17.5173 34.0214H18.9898C19.3748 34.0214 19.6877 34.3343 19.6877 34.7193C19.6877 35.1043 19.3748 35.4183 18.9898 35.4183Z" fill="white"/>
<path d="M11.0804 35.4184H9.24722C8.92386 35.4184 8.62958 35.2893 8.39462 35.045C7.69207 34.3134 7.70719 32.5442 7.72813 32.0208C7.74325 31.6358 8.06777 31.3392 8.45394 31.352C8.83895 31.3671 9.13788 31.6928 9.12276 32.0778C9.09252 32.8536 9.20534 33.7434 9.36237 34.0237H11.0804C11.4654 34.0237 11.7783 34.3366 11.7783 34.7216C11.7783 35.1067 11.4665 35.4184 11.0804 35.4184Z" fill="white"/>
<path d="M7.38609 23.3795C8.04455 23.3795 8.57833 22.8457 8.57833 22.1872C8.57833 21.5288 8.04455 20.995 7.38609 20.995C6.72763 20.995 6.19385 21.5288 6.19385 22.1872C6.19385 22.8457 6.72763 23.3795 7.38609 23.3795Z" fill="white"/>
<path d="M20.1227 9.30542V9.53805C20.1227 9.60901 20.1099 9.67763 20.0867 9.74044C20.1111 9.5997 20.1227 9.45314 20.1227 9.30542Z" fill="white"/>
<path d="M21.286 7.05655V11.0888C21.286 11.2858 21.2705 11.4812 21.2382 11.6689C20.9636 13.3624 19.5013 14.6559 17.7383 14.6559C15.7794 14.6559 14.1907 13.0585 14.1907 11.0888V7.83199C14.1907 7.40395 14.5362 7.05655 14.9619 7.05655C15.1748 7.05655 15.3676 7.1434 15.5079 7.28298C15.6468 7.42411 15.7331 7.61797 15.7331 7.83199V8.29726C15.7331 8.64 16.0092 8.91761 16.3501 8.91761C16.691 8.91761 16.9671 8.64 16.9671 8.29726V5.19549C16.9671 4.76744 17.3126 4.42004 17.7383 4.42004C17.9512 4.42004 18.144 4.50689 18.2844 4.64647C18.4232 4.7876 18.5096 4.98146 18.5096 5.19549V8.29726C18.5096 8.64 18.7857 8.91761 19.1265 8.91761C19.4674 8.91761 19.7435 8.64 19.7435 8.29726V7.05655C19.7435 6.6285 20.089 6.28111 20.5147 6.28111C20.7276 6.28111 20.9204 6.36795 21.0608 6.50753C21.1996 6.64867 21.286 6.84253 21.286 7.05655Z" fill="#CCCECC"/>
<path d="M17.7382 2.44264C17.3209 2.44264 16.9822 2.10067 16.9822 1.67932V0.763326C16.9822 0.34197 17.3209 0 17.7382 0C18.1556 0 18.4943 0.34197 18.4943 0.763326V1.67932C18.4943 2.10067 18.1556 2.44264 17.7382 2.44264Z" fill="#CCCECC"/>
<path d="M20.5297 4.65267C20.1124 4.65267 19.7737 4.31195 19.7737 3.89214V3.43582C19.7737 3.01601 20.1124 2.67529 20.5297 2.67529C20.9471 2.67529 21.2858 3.01601 21.2858 3.43582V3.89214C21.2858 4.31195 20.9471 4.65267 20.5297 4.65267Z" fill="#CCCECC"/>
<path d="M14.9467 5.81572C14.5294 5.81572 14.1907 5.46212 14.1907 5.02643V4.395C14.1907 3.95931 14.5294 3.60571 14.9467 3.60571C15.3641 3.60571 15.7028 3.95931 15.7028 4.395V5.02643C15.7028 5.46212 15.3641 5.81572 14.9467 5.81572Z" fill="#CCCECC"/>
<path d="M18.2459 21.5186C18.499 21.5558 18.7224 21.6265 18.9159 21.7307C19.1169 21.8275 19.2249 21.9615 19.2397 22.1327C19.2397 22.2518 19.21 22.3746 19.1504 22.5012C19.0909 22.6277 19.0127 22.758 18.9159 22.892L15.0524 28.4864C14.8141 28.4491 14.6131 28.3822 14.4494 28.2854C14.293 28.1812 14.2074 28.0434 14.1925 27.8722C14.1925 27.7531 14.2 27.6377 14.2149 27.5261C14.2372 27.407 14.2968 27.273 14.3935 27.1241L18.2459 21.5186ZM16.1578 23.294C16.1578 23.8523 15.9903 24.2878 15.6553 24.6005C15.3203 24.9131 14.8886 25.0695 14.36 25.0695C13.8241 25.0695 13.3886 24.9131 13.0536 24.6005C12.726 24.2878 12.5623 23.8523 12.5623 23.294C12.5623 22.7431 12.726 22.3114 13.0536 21.9987C13.3886 21.6861 13.8241 21.5297 14.36 21.5297C14.8886 21.5297 15.3203 21.6861 15.6553 21.9987C15.9903 22.3114 16.1578 22.7431 16.1578 23.294ZM13.9134 23.294C13.9134 23.5173 13.9543 23.6848 14.0362 23.7965C14.1255 23.9007 14.2335 23.9528 14.36 23.9528C14.4866 23.9528 14.5908 23.9007 14.6727 23.7965C14.762 23.6848 14.8067 23.5173 14.8067 23.294C14.8067 23.0781 14.762 22.9181 14.6727 22.8139C14.5908 22.7096 14.4866 22.6575 14.36 22.6575C14.2335 22.6575 14.1255 22.7096 14.0362 22.8139C13.9543 22.9181 13.9134 23.0781 13.9134 23.294ZM20.8365 26.7221C20.8365 27.2804 20.669 27.7159 20.334 28.0285C19.9991 28.3412 19.5673 28.4975 19.0388 28.4975C18.5028 28.4975 18.0673 28.3412 17.7323 28.0285C17.4047 27.7159 17.241 27.2804 17.241 26.7221C17.241 26.1712 17.4047 25.7394 17.7323 25.4268C18.0673 25.1141 18.5028 24.9578 19.0388 24.9578C19.5673 24.9578 19.9991 25.1141 20.334 25.4268C20.669 25.7394 20.8365 26.1712 20.8365 26.7221ZM18.5921 26.7221C18.5921 26.9454 18.633 27.1129 18.7149 27.2246C18.8043 27.3288 18.9122 27.3809 19.0388 27.3809C19.1653 27.3809 19.2695 27.3288 19.3514 27.2246C19.4407 27.1129 19.4854 26.9454 19.4854 26.7221C19.4854 26.5062 19.4407 26.3461 19.3514 26.2419C19.2695 26.1377 19.1653 26.0856 19.0388 26.0856C18.9122 26.0856 18.8043 26.1377 18.7149 26.2419C18.633 26.3461 18.5921 26.5062 18.5921 26.7221Z" fill="white"/>
<path d="M17.5464 12.0331H17.5366C17.4883 12.0331 17.442 12.0139 17.4078 11.9797C17.3737 11.9456 17.3545 11.8992 17.3545 11.8509C17.3545 11.8 17.3342 11.7512 17.2983 11.7152C17.2623 11.6792 17.2134 11.659 17.1625 11.659C17.1116 11.659 17.0628 11.6792 17.0268 11.7152C16.9908 11.7512 16.9706 11.8 16.9706 11.8509C16.9706 12.001 17.0303 12.145 17.1364 12.2511C17.2425 12.3573 17.3865 12.4169 17.5366 12.4169H17.5464V12.6088C17.5464 12.6597 17.5666 12.7086 17.6026 12.7445C17.6386 12.7805 17.6874 12.8008 17.7383 12.8008C17.7892 12.8008 17.838 12.7805 17.874 12.7445C17.91 12.7086 17.9302 12.6597 17.9302 12.6088V12.4169C18.0829 12.4169 18.2294 12.3563 18.3374 12.2483C18.4453 12.1403 18.506 11.9939 18.506 11.8411C18.506 11.6884 18.4453 11.542 18.3374 11.434C18.2294 11.326 18.0829 11.2654 17.9302 11.2654V10.8815H17.9345C18.0381 10.8815 18.1222 10.9656 18.1222 11.0692C18.1222 11.1201 18.1424 11.169 18.1784 11.2049C18.2144 11.2409 18.2632 11.2612 18.3141 11.2612C18.365 11.2612 18.4138 11.2409 18.4498 11.2049C18.4858 11.169 18.506 11.1201 18.506 11.0692C18.506 10.9177 18.4458 10.7723 18.3386 10.6651C18.2314 10.5579 18.086 10.4977 17.9345 10.4977H17.9302V10.3058C17.9302 10.2549 17.91 10.2061 17.874 10.1701C17.838 10.1341 17.7892 10.1139 17.7383 10.1139C17.6874 10.1139 17.6386 10.1341 17.6026 10.1701C17.5666 10.2061 17.5464 10.2549 17.5464 10.3058V10.4977C17.3937 10.4977 17.2472 10.5584 17.1393 10.6663C17.0313 10.7743 16.9706 10.9208 16.9706 11.0735C16.9706 11.2262 17.0313 11.3726 17.1393 11.4806C17.2472 11.5886 17.3937 11.6492 17.5464 11.6492V12.0331ZM17.9302 12.0331V11.6492C17.9811 11.6492 18.03 11.6694 18.0659 11.7054C18.1019 11.7414 18.1222 11.7902 18.1222 11.8411C18.1222 11.8921 18.1019 11.9409 18.0659 11.9769C18.03 12.0129 17.9811 12.0331 17.9302 12.0331ZM17.5464 10.8815V11.2654C17.4955 11.2654 17.4467 11.2452 17.4107 11.2092C17.3747 11.1732 17.3545 11.1244 17.3545 11.0735C17.3545 11.0226 17.3747 10.9737 17.4107 10.9378C17.4467 10.9018 17.4955 10.8815 17.5464 10.8815ZM17.7383 13.3765C16.6783 13.3765 15.8191 12.5173 15.8191 11.4573C15.8191 10.3973 16.6783 9.53809 17.7383 9.53809C18.7983 9.53809 19.6575 10.3973 19.6575 11.4573C19.6575 12.5173 18.7983 13.3765 17.7383 13.3765Z" fill="white"/>
<path d="M40.2111 31.2212C40.3568 31.2628 40.5442 31.2941 40.7733 31.3149C41.0024 31.3253 41.221 31.3305 41.4292 31.3305C41.8457 31.3305 42.1893 31.2472 42.46 31.0806C42.7411 30.9036 42.8816 30.6329 42.8816 30.2685C42.8816 29.9249 42.7671 29.6803 42.538 29.5345C42.309 29.3888 41.9602 29.3159 41.4917 29.3159H40.2111V31.2212ZM40.2111 27.4106H41.3511C41.7988 27.4106 42.1216 27.3273 42.3194 27.1607C42.5276 26.9941 42.6317 26.7494 42.6317 26.4267C42.6317 26.1456 42.512 25.9217 42.2726 25.7551C42.0435 25.5886 41.6947 25.5053 41.2262 25.5053C41.07 25.5053 40.8878 25.5105 40.6796 25.5209C40.4818 25.5313 40.3256 25.5469 40.2111 25.5677V27.4106ZM41.2262 33.4232C41.0492 33.4232 40.841 33.418 40.6015 33.4076C40.362 33.3972 40.1122 33.3763 39.8519 33.3451C39.602 33.3139 39.3521 33.2722 39.1023 33.2202C38.8524 33.1785 38.6233 33.1161 38.4151 33.0328C37.8425 32.8141 37.5562 32.4341 37.5562 31.8927V24.5995C37.5562 24.3808 37.6134 24.2142 37.7279 24.0997C37.8529 23.9748 38.0195 23.8759 38.2277 23.803C38.5817 23.6781 39.0242 23.5896 39.5552 23.5375C40.0861 23.475 40.6327 23.4438 41.195 23.4438C42.5276 23.4438 43.5532 23.6676 44.2716 24.1153C44.9899 24.563 45.3491 25.2554 45.3491 26.1924C45.3491 26.6609 45.2138 27.067 44.9431 27.4106C44.6724 27.7437 44.308 27.9884 43.8499 28.1446C44.3705 28.2903 44.8025 28.5558 45.1461 28.9411C45.5001 29.3263 45.6771 29.8104 45.6771 30.3935C45.6771 31.4242 45.2919 32.1894 44.5214 32.6892C43.7614 33.1785 42.663 33.4232 41.2262 33.4232Z" fill="white"/>
<path d="M49.7242 33.1577C49.6096 33.1785 49.4378 33.2046 49.2088 33.2358C48.9902 33.2774 48.7663 33.2983 48.5373 33.2983C48.3082 33.2983 48.1 33.2826 47.9126 33.2514C47.7356 33.2202 47.5846 33.1577 47.4597 33.064C47.3347 32.9703 47.2358 32.8454 47.1629 32.6892C47.1005 32.5226 47.0692 32.3092 47.0692 32.0489V22.9909C47.1838 22.9701 47.3503 22.944 47.569 22.9128C47.798 22.8712 48.0271 22.8503 48.2561 22.8503C48.4852 22.8503 48.6882 22.866 48.8652 22.8972C49.0526 22.9284 49.2088 22.9909 49.3337 23.0846C49.4587 23.1783 49.5524 23.3084 49.6148 23.475C49.6877 23.6312 49.7242 23.8394 49.7242 24.0997V33.1577Z" fill="white"/>
<path d="M59.2549 29.3783C59.2549 30.0239 59.156 30.6017 58.9582 31.1119C58.7604 31.6116 58.4793 32.0333 58.1149 32.3768C57.7609 32.7204 57.334 32.9807 56.8343 33.1577C56.3345 33.3347 55.7775 33.4232 55.1632 33.4232C54.5489 33.4232 53.9919 33.3295 53.4922 33.1421C52.9924 32.9547 52.5604 32.6892 52.196 32.3456C51.842 31.9916 51.5661 31.5647 51.3682 31.065C51.1704 30.5652 51.0715 30.003 51.0715 29.3783C51.0715 28.7641 51.1704 28.207 51.3682 27.7073C51.5661 27.2075 51.842 26.7859 52.196 26.4423C52.5604 26.0883 52.9924 25.8176 53.4922 25.6302C53.9919 25.4428 54.5489 25.3491 55.1632 25.3491C55.7775 25.3491 56.3345 25.448 56.8343 25.6458C57.334 25.8332 57.7609 26.1039 58.1149 26.4579C58.4793 26.8015 58.7604 27.2232 58.9582 27.7229C59.156 28.2227 59.2549 28.7745 59.2549 29.3783ZM53.7889 29.3783C53.7889 30.0134 53.9086 30.5028 54.1481 30.8464C54.398 31.1795 54.7416 31.3461 55.1788 31.3461C55.6161 31.3461 55.9493 31.1743 56.1783 30.8307C56.4178 30.4872 56.5375 30.003 56.5375 29.3783C56.5375 28.7537 56.4178 28.2747 56.1783 27.9416C55.9389 27.598 55.6005 27.4262 55.1632 27.4262C54.7259 27.4262 54.3876 27.598 54.1481 27.9416C53.9086 28.2747 53.7889 28.7537 53.7889 29.3783Z" fill="white"/>
<path d="M64.2515 25.3491C64.8449 25.3491 65.3811 25.4272 65.86 25.5834C66.3494 25.7291 66.7606 25.9217 67.0938 26.1612C67.302 26.307 67.4634 26.4683 67.5779 26.6453C67.7029 26.8223 67.7653 27.0514 67.7653 27.3325V32.7985C67.7653 33.3503 67.6612 33.824 67.453 34.2197C67.2448 34.6257 66.9585 34.9589 66.5941 35.2192C66.2401 35.4899 65.8184 35.6877 65.3291 35.8126C64.8501 35.9376 64.3348 36 63.783 36C62.8355 36 62.0911 35.8699 61.5497 35.6096C61.0083 35.3597 60.7376 34.9485 60.7376 34.3758C60.7376 34.1364 60.7844 33.9229 60.8781 33.7355C60.9823 33.5585 61.0968 33.4232 61.2217 33.3295C61.5237 33.4961 61.862 33.6366 62.2368 33.7512C62.6221 33.8657 63.0177 33.9229 63.4238 33.9229C63.986 33.9229 64.4337 33.8292 64.7668 33.6418C65.1 33.4544 65.2666 33.1525 65.2666 32.736V32.4862C64.8397 32.6736 64.3191 32.7673 63.7049 32.7673C63.2363 32.7673 62.7887 32.6996 62.3618 32.5643C61.9453 32.4185 61.5757 32.1999 61.253 31.9083C60.9406 31.6064 60.6855 31.2212 60.4877 30.7527C60.3003 30.2841 60.2066 29.7271 60.2066 29.0816C60.2066 28.4465 60.3055 27.8947 60.5033 27.4262C60.7116 26.9577 60.9927 26.5724 61.3467 26.2705C61.7111 25.9582 62.1379 25.7291 62.6273 25.5834C63.127 25.4272 63.6684 25.3491 64.2515 25.3491ZM65.2197 27.6136C65.1469 27.5719 65.0375 27.5303 64.8918 27.4887C64.7564 27.447 64.5846 27.4262 64.3764 27.4262C63.8662 27.4262 63.481 27.5719 63.2207 27.8635C62.9709 28.1446 62.8459 28.5506 62.8459 29.0816C62.8459 29.6855 62.9709 30.1228 63.2207 30.3935C63.481 30.6537 63.809 30.7839 64.2046 30.7839C64.6315 30.7839 64.9699 30.685 65.2197 30.4872V27.6136Z" fill="white"/>
<path d="M73.5903 25.3492C74.1837 25.3492 74.7199 25.4273 75.1988 25.5835C75.6882 25.7292 76.0994 25.9218 76.4326 26.1613C76.6408 26.3071 76.8022 26.4684 76.9167 26.6454C77.0417 26.8224 77.1041 27.0515 77.1041 27.3326V32.7986C77.1041 33.3504 77 33.8241 76.7918 34.2198C76.5836 34.6258 76.2973 34.959 75.9329 35.2193C75.5789 35.49 75.1572 35.6878 74.6679 35.8127C74.1889 35.9377 73.6736 36.0001 73.1218 36.0001C72.1743 36.0001 71.4299 35.87 70.8885 35.6097C70.3471 35.3598 70.0764 34.9486 70.0764 34.3759C70.0764 34.1365 70.1232 33.923 70.217 33.7356C70.3211 33.5586 70.4356 33.4233 70.5605 33.3296C70.8625 33.4962 71.2008 33.6367 71.5756 33.7513C71.9609 33.8658 72.3565 33.923 72.7626 33.923C73.3248 33.923 73.7725 33.8293 74.1056 33.6419C74.4388 33.4545 74.6054 33.1526 74.6054 32.7361V32.4863C74.1785 32.6737 73.6579 32.7674 73.0437 32.7674C72.5752 32.7674 72.1275 32.6997 71.7006 32.5644C71.2841 32.4186 70.9145 32.1999 70.5918 31.9084C70.2794 31.6065 70.0243 31.2213 69.8265 30.7528C69.6391 30.2842 69.5454 29.7272 69.5454 29.0817C69.5454 28.4466 69.6443 27.8948 69.8421 27.4263C70.0504 26.9578 70.3315 26.5725 70.6855 26.2706C71.0499 25.9583 71.4767 25.7292 71.9661 25.5835C72.4658 25.4273 73.0072 25.3492 73.5903 25.3492ZM74.5585 27.6137C74.4857 27.572 74.3763 27.5304 74.2306 27.4888C74.0952 27.4471 73.9234 27.4263 73.7152 27.4263C73.205 27.4263 72.8198 27.572 72.5595 27.8636C72.3097 28.1447 72.1847 28.5507 72.1847 29.0817C72.1847 29.6856 72.3097 30.1229 72.5595 30.3936C72.8198 30.6538 73.1478 30.784 73.5434 30.784C73.9703 30.784 74.3087 30.6851 74.5585 30.4873V27.6137Z" fill="white"/>
<path d="M78.6875 23.4751C78.6875 23.0795 78.8176 22.7463 79.0779 22.4756C79.3486 22.2049 79.7026 22.0696 80.1399 22.0696C80.5771 22.0696 80.9259 22.2049 81.1862 22.4756C81.4569 22.7463 81.5923 23.0795 81.5923 23.4751C81.5923 23.8708 81.4569 24.2039 81.1862 24.4746C80.9259 24.7453 80.5771 24.8807 80.1399 24.8807C79.7026 24.8807 79.3486 24.7453 79.0779 24.4746C78.8176 24.2039 78.6875 23.8708 78.6875 23.4751ZM81.4673 33.1578C81.3528 33.1786 81.181 33.2047 80.952 33.2359C80.7333 33.2775 80.5095 33.2984 80.2804 33.2984C80.0514 33.2984 79.8431 33.2827 79.6557 33.2515C79.4787 33.2203 79.3278 33.1578 79.2028 33.0641C79.0779 32.9704 78.979 32.8455 78.9061 32.6893C78.8436 32.5227 78.8124 32.3093 78.8124 32.049V25.6928C78.9269 25.672 79.0935 25.6459 79.3122 25.6147C79.5412 25.573 79.7703 25.5522 79.9993 25.5522C80.2284 25.5522 80.4314 25.5678 80.6084 25.5991C80.7958 25.6303 80.952 25.6928 81.0769 25.7865C81.2018 25.8802 81.2955 26.0103 81.358 26.1769C81.4309 26.3331 81.4673 26.5413 81.4673 26.8016V33.1578Z" fill="white"/>
<path d="M86.4059 31.4868C86.5829 31.4868 86.7755 31.4711 86.9837 31.4399C87.2024 31.3983 87.3638 31.3462 87.4679 31.2837V30.0344L86.3434 30.1281C86.0519 30.1489 85.8125 30.2114 85.625 30.3155C85.4376 30.4196 85.3439 30.5758 85.3439 30.784C85.3439 30.9922 85.422 31.164 85.5782 31.2994C85.7448 31.4243 86.0207 31.4868 86.4059 31.4868ZM86.281 25.3492C86.8432 25.3492 87.3534 25.4065 87.8115 25.521C88.28 25.6355 88.6756 25.8125 88.9984 26.052C89.3315 26.281 89.5866 26.5778 89.7636 26.9422C89.9406 27.2961 90.0291 27.7178 90.0291 28.2071V31.7054C90.0291 31.9761 89.951 32.1999 89.7948 32.3769C89.6491 32.5435 89.4721 32.6893 89.2639 32.8142C88.5871 33.2203 87.6345 33.4233 86.4059 33.4233C85.8541 33.4233 85.3543 33.3712 84.9067 33.2671C84.4694 33.163 84.0894 33.0068 83.7666 32.7986C83.4543 32.5904 83.2096 32.3249 83.0326 32.0021C82.866 31.6794 82.7827 31.3046 82.7827 30.8777C82.7827 30.1593 82.9961 29.6075 83.423 29.2223C83.8499 28.837 84.511 28.5976 85.4064 28.5039L87.4523 28.2852V28.1759C87.4523 27.874 87.3169 27.6605 87.0462 27.5356C86.7859 27.4003 86.4059 27.3326 85.9062 27.3326C85.5105 27.3326 85.1253 27.3742 84.7505 27.4575C84.3757 27.5408 84.0373 27.6449 83.7354 27.7699C83.6 27.6762 83.4855 27.5356 83.3918 27.3482C83.2981 27.1504 83.2512 26.9474 83.2512 26.7391C83.2512 26.4684 83.3137 26.255 83.4386 26.0988C83.574 25.9322 83.777 25.7917 84.0477 25.6772C84.3496 25.5626 84.7036 25.4793 85.1097 25.4273C85.5261 25.3752 85.9166 25.3492 86.281 25.3492Z" fill="white"/>
<path d="M95.2912 25.3492C95.7181 25.3492 96.1346 25.4117 96.5406 25.5366C96.9571 25.6511 97.3163 25.8281 97.6182 26.0676C97.9306 25.8594 98.2793 25.6876 98.6646 25.5522C99.0602 25.4169 99.5339 25.3492 100.086 25.3492C100.481 25.3492 100.867 25.4013 101.241 25.5054C101.627 25.6095 101.965 25.7761 102.257 26.0051C102.558 26.2238 102.798 26.5205 102.975 26.8953C103.152 27.2597 103.24 27.7074 103.24 28.2384V33.1578C103.136 33.189 102.97 33.2203 102.741 33.2515C102.522 33.2827 102.293 33.2984 102.054 33.2984C101.824 33.2984 101.616 33.2827 101.429 33.2515C101.252 33.2203 101.101 33.1578 100.976 33.0641C100.851 32.9704 100.752 32.8455 100.679 32.6893C100.617 32.5227 100.585 32.3093 100.585 32.049V28.3165C100.585 28.0041 100.497 27.7803 100.32 27.6449C100.143 27.4992 99.9035 27.4263 99.6016 27.4263C99.4558 27.4263 99.2997 27.4627 99.1331 27.5356C98.9665 27.5981 98.8416 27.6658 98.7583 27.7386C98.7687 27.7803 98.7739 27.8219 98.7739 27.8636C98.7739 27.8948 98.7739 27.926 98.7739 27.9573V33.1578C98.6594 33.189 98.4876 33.2203 98.2585 33.2515C98.0399 33.2827 97.816 33.2984 97.587 33.2984C97.3579 33.2984 97.1497 33.2827 96.9623 33.2515C96.7853 33.2203 96.6343 33.1578 96.5094 33.0641C96.3845 32.9704 96.2855 32.8455 96.2127 32.6893C96.1502 32.5227 96.119 32.3093 96.119 32.049V28.3165C96.119 28.0041 96.0201 27.7803 95.8222 27.6449C95.6348 27.4992 95.4058 27.4263 95.1351 27.4263C94.9477 27.4263 94.7863 27.4575 94.6509 27.52C94.5156 27.572 94.4011 27.6241 94.3074 27.6762V33.1578C94.2032 33.189 94.0367 33.2203 93.8076 33.2515C93.589 33.2827 93.3599 33.2984 93.1205 33.2984C92.8914 33.2984 92.6832 33.2827 92.4958 33.2515C92.3188 33.2203 92.1678 33.1578 92.0429 33.0641C91.9179 32.9704 91.819 32.8455 91.7461 32.6893C91.6837 32.5227 91.6524 32.3093 91.6524 32.049V27.3326C91.6524 27.0515 91.7097 26.8276 91.8242 26.661C91.9492 26.4945 92.1157 26.3383 92.324 26.1925C92.678 25.9427 93.1152 25.7396 93.6358 25.5835C94.1668 25.4273 94.7186 25.3492 95.2912 25.3492Z" fill="white"/>
<path d="M108.561 25.3492C109.155 25.3492 109.691 25.4273 110.17 25.5835C110.659 25.7292 111.07 25.9218 111.404 26.1613C111.612 26.3071 111.773 26.4684 111.888 26.6454C112.013 26.8224 112.075 27.0515 112.075 27.3326V32.7986C112.075 33.3504 111.971 33.8241 111.763 34.2198C111.555 34.6258 111.268 34.959 110.904 35.2193C110.55 35.49 110.128 35.6878 109.639 35.8127C109.16 35.9377 108.645 36.0001 108.093 36.0001C107.145 36.0001 106.401 35.87 105.859 35.6097C105.318 35.3598 105.047 34.9486 105.047 34.3759C105.047 34.1365 105.094 33.923 105.188 33.7356C105.292 33.5586 105.407 33.4233 105.532 33.3296C105.833 33.4962 106.172 33.6367 106.547 33.7513C106.932 33.8658 107.327 33.923 107.734 33.923C108.296 33.923 108.743 33.8293 109.077 33.6419C109.41 33.4545 109.576 33.1526 109.576 32.7361V32.4863C109.149 32.6737 108.629 32.7674 108.015 32.7674C107.546 32.7674 107.098 32.6997 106.672 32.5644C106.255 32.4186 105.885 32.1999 105.563 31.9084C105.25 31.6065 104.995 31.2213 104.797 30.7528C104.61 30.2842 104.516 29.7272 104.516 29.0817C104.516 28.4466 104.615 27.8948 104.813 27.4263C105.021 26.9578 105.302 26.5725 105.656 26.2706C106.021 25.9583 106.448 25.7292 106.937 25.5835C107.437 25.4273 107.978 25.3492 108.561 25.3492ZM109.53 27.6137C109.457 27.572 109.347 27.5304 109.202 27.4888C109.066 27.4471 108.894 27.4263 108.686 27.4263C108.176 27.4263 107.791 27.572 107.531 27.8636C107.281 28.1447 107.156 28.5507 107.156 29.0817C107.156 29.6856 107.281 30.1229 107.531 30.3936C107.791 30.6538 108.119 30.784 108.514 30.784C108.941 30.784 109.28 30.6851 109.53 30.4873V27.6137Z" fill="white"/>
<path d="M113.658 23.4751C113.658 23.0795 113.789 22.7463 114.049 22.4756C114.32 22.2049 114.674 22.0696 115.111 22.0696C115.548 22.0696 115.897 22.2049 116.157 22.4756C116.428 22.7463 116.563 23.0795 116.563 23.4751C116.563 23.8708 116.428 24.2039 116.157 24.4746C115.897 24.7453 115.548 24.8807 115.111 24.8807C114.674 24.8807 114.32 24.7453 114.049 24.4746C113.789 24.2039 113.658 23.8708 113.658 23.4751ZM116.438 33.1578C116.324 33.1786 116.152 33.2047 115.923 33.2359C115.704 33.2775 115.48 33.2984 115.251 33.2984C115.022 33.2984 114.814 33.2827 114.627 33.2515C114.45 33.2203 114.299 33.1578 114.174 33.0641C114.049 32.9704 113.95 32.8455 113.877 32.6893C113.815 32.5227 113.783 32.3093 113.783 32.049V25.6928C113.898 25.672 114.064 25.6459 114.283 25.6147C114.512 25.573 114.741 25.5522 114.97 25.5522C115.199 25.5522 115.402 25.5678 115.579 25.5991C115.767 25.6303 115.923 25.6928 116.048 25.7865C116.173 25.8802 116.267 26.0103 116.329 26.1769C116.402 26.3331 116.438 26.5413 116.438 26.8016V33.1578Z" fill="white"/>
<path d="M121.377 31.4868C121.554 31.4868 121.746 31.4711 121.955 31.4399C122.173 31.3983 122.335 31.3462 122.439 31.2837V30.0344L121.314 30.1281C121.023 30.1489 120.783 30.2114 120.596 30.3155C120.409 30.4196 120.315 30.5758 120.315 30.784C120.315 30.9922 120.393 31.164 120.549 31.2994C120.716 31.4243 120.992 31.4868 121.377 31.4868ZM121.252 25.3492C121.814 25.3492 122.324 25.4065 122.782 25.521C123.251 25.6355 123.647 25.8125 123.969 26.052C124.303 26.281 124.558 26.5778 124.735 26.9422C124.912 27.2961 125 27.7178 125 28.2071V31.7054C125 31.9761 124.922 32.1999 124.766 32.3769C124.62 32.5435 124.443 32.6893 124.235 32.8142C123.558 33.2203 122.605 33.4233 121.377 33.4233C120.825 33.4233 120.325 33.3712 119.878 33.2671C119.44 33.163 119.06 33.0068 118.738 32.7986C118.425 32.5904 118.181 32.3249 118.004 32.0021C117.837 31.6794 117.754 31.3046 117.754 30.8777C117.754 30.1593 117.967 29.6075 118.394 29.2223C118.821 28.837 119.482 28.5976 120.377 28.5039L122.423 28.2852V28.1759C122.423 27.874 122.288 27.6605 122.017 27.5356C121.757 27.4003 121.377 27.3326 120.877 27.3326C120.481 27.3326 120.096 27.3742 119.721 27.4575C119.347 27.5408 119.008 27.6449 118.706 27.7699C118.571 27.6762 118.456 27.5356 118.363 27.3482C118.269 27.1504 118.222 26.9474 118.222 26.7391C118.222 26.4684 118.285 26.255 118.41 26.0988C118.545 25.9322 118.748 25.7917 119.019 25.6772C119.321 25.5626 119.675 25.4793 120.081 25.4273C120.497 25.3752 120.888 25.3492 121.252 25.3492Z" fill="white"/>
</svg>
